<?xml version="1.0" standalone="no"?>
<!DOCTYPE svg PUBLIC "-//W3C//DTD SVG 20010904//EN"
 "http://www.w3.org/TR/2001/REC-SVG-20010904/DTD/svg10.dtd">
<svg version="1.0" xmlns="http://www.w3.org/2000/svg"
 width="708.000000pt" height="148.000000pt" viewBox="0 0 708.000000 148.000000"
 preserveAspectRatio="xMidYMid meet">

<g transform="translate(0.000000,148.000000) scale(0.100000,-0.100000)"
fill="#000000" stroke="none">
<path d="M700 1160 c0 -13 7 -20 20 -20 24 0 27 25 4 34 -23 9 -24 8 -24 -14z"/>
<path d="M617 1155 c6 -18 34 -16 41 3 2 7 -6 12 -22 12 -19 0 -24 -4 -19 -15z"/>
<path d="M780 1156 c0 -9 5 -16 10 -16 6 0 10 4 10 9 0 6 -4 13 -10 16 -5 3
-10 -1 -10 -9z"/>
<path d="M535 1146 c-16 -12 -17 -16 -6 -30 17 -21 57 -21 65 0 7 18 -10 44
-28 44 -7 0 -21 -6 -31 -14z"/>
<path d="M887 1126 c-21 -16 -22 -26 -3 -26 8 0 17 7 20 16 9 23 4 25 -17 10z"/>
<path d="M1617 1119 c-14 -8 -15 -13 -5 -29 10 -15 9 -22 -5 -38 -23 -25 -22
-39 2 -18 14 12 27 16 43 10 21 -6 21 -5 9 10 -11 13 -11 20 -3 28 16 16 15
26 -6 37 -11 6 -24 6 -35 0z"/>
<path d="M460 1100 c0 -25 27 -37 43 -20 9 10 9 11 0 6 -9 -5 -13 0 -13 13 0
12 -7 21 -15 21 -8 0 -15 -9 -15 -20z"/>
<path d="M1346 1086 c-20 -43 -20 -69 0 -112 16 -34 43 -50 28 -16 -13 30 -16
109 -5 130 6 12 7 23 2 26 -5 3 -16 -9 -25 -28z"/>
<path d="M1425 1110 c-3 -5 3 -10 13 -10 22 0 36 -25 26 -43 -4 -7 -16 -22
-27 -34 -32 -35 -12 -39 23 -5 38 39 40 79 4 92 -31 12 -31 12 -39 0z"/>
<path d="M1526 1108 c-9 -25 -1 -143 9 -145 6 -1 9 12 7 29 -1 17 2 36 8 44 8
9 8 19 0 34 -6 11 -8 25 -5 30 3 5 1 11 -5 15 -6 3 -12 0 -14 -7z"/>
<path d="M1710 1075 c0 -25 5 -45 10 -45 6 0 10 20 10 45 0 25 -4 45 -10 45
-5 0 -10 -20 -10 -45z"/>
<path d="M1775 1030 c0 -77 2 -87 14 -75 20 20 21 130 1 149 -13 14 -15 5 -15
-74z"/>
<path d="M921 1091 c-6 -11 -7 -22 -2 -25 5 -3 11 4 14 16 8 30 1 35 -12 9z"/>
<path d="M400 1066 c0 -18 26 -39 39 -31 7 4 6 12 -2 25 -14 23 -37 27 -37 6z"/>
<path d="M940 1051 c0 -5 7 -11 15 -15 8 -3 15 -1 15 3 0 5 -7 11 -15 15 -8 3
-15 1 -15 -3z"/>
<path d="M1006 1021 c-19 -21 -14 -41 9 -41 17 0 38 36 30 50 -9 15 -20 12
-39 -9z"/>
<path d="M1655 1010 c-4 -6 5 -10 19 -10 19 0 26 -5 26 -20 0 -31 -57 -28 -63
3 -3 20 -4 20 -12 4 -5 -13 -2 -25 13 -40 18 -17 26 -19 48 -12 15 6 32 18 38
28 9 15 7 22 -13 38 -26 21 -46 24 -56 9z"/>
<path d="M365 990 c20 -22 31 -20 22 5 -4 8 -14 15 -23 15 -16 0 -16 -2 1 -20z"/>
<path d="M625 996 c-81 -19 -115 -44 -115 -83 0 -27 4 -34 28 -39 42 -10 103
-48 147 -93 44 -46 70 -51 134 -25 65 26 63 53 -9 116 -27 24 -47 34 -60 31
-30 -8 -25 -19 25 -53 25 -17 45 -35 45 -40 0 -12 -41 -40 -60 -40 -8 0 -37
20 -63 44 -26 24 -66 51 -90 61 -23 9 -49 20 -57 25 -53 26 49 84 150 85 36 0
76 -4 90 -9 17 -5 22 -5 15 2 -9 9 -105 33 -123 31 -4 0 -30 -6 -57 -13z"/>
<path d="M1057 974 c-11 -11 -8 -64 4 -64 6 0 8 9 4 20 -4 12 -2 20 5 20 6 0
8 -5 4 -11 -4 -7 -1 -10 7 -7 19 6 18 42 -1 46 -9 1 -19 0 -23 -4z"/>
<path d="M306 963 c-3 -3 -6 -15 -6 -25 0 -23 42 -25 60 -3 7 9 11 17 9 19
-10 8 -57 15 -63 9z"/>
<path d="M825 960 c3 -5 8 -10 11 -10 2 0 4 5 4 10 0 6 -5 10 -11 10 -5 0 -7
-4 -4 -10z"/>
<path d="M277 893 c-4 -3 -7 -12 -7 -20 0 -11 4 -11 20 -1 11 7 20 16 20 20 0
10 -24 10 -33 1z"/>
<path d="M1072 884 c1 -9 9 -19 16 -22 9 -3 13 2 10 14 -1 9 -9 19 -16 22 -9
3 -13 -2 -10 -14z"/>
<path d="M6037 875 c-9 -9 -17 -21 -17 -26 0 -5 -16 -9 -35 -9 -21 0 -35 -5
-35 -13 0 -9 26 -12 100 -12 74 0 100 3 100 12 0 8 -14 13 -35 13 -19 0 -35 4
-35 8 0 5 -6 16 -13 26 -13 17 -14 17 -30 1z"/>
<path d="M320 864 c0 -8 5 -12 10 -9 6 3 10 10 10 16 0 5 -4 9 -10 9 -5 0 -10
-7 -10 -16z"/>
<path d="M1607 873 c-4 -3 -7 -14 -7 -24 0 -10 -10 -19 -25 -23 -14 -4 -25
-11 -25 -16 0 -5 11 -12 25 -16 16 -4 25 -13 25 -25 0 -18 -5 -21 -40 -23 -8
-1 -15 -8 -15 -16 0 -8 7 -15 15 -16 34 -2 39 -5 42 -26 2 -13 10 -23 18 -23
12 0 16 20 18 108 2 85 0 107 -11 107 -8 0 -17 -3 -20 -7z"/>
<path d="M1747 873 c-4 -3 -7 -35 -7 -70 l0 -63 120 0 121 0 -3 67 c-2 44 -7
68 -16 71 -7 2 -16 -5 -19 -17 -5 -19 -12 -21 -83 -21 -69 0 -78 2 -83 20 -5
20 -18 26 -30 13z m191 -90 c-3 -15 -15 -18 -78 -18 -63 0 -75 3 -78 18 -3 15
6 17 78 17 72 0 81 -2 78 -17z"/>
<path d="M3325 868 c-3 -7 -6 -62 -7 -123 -3 -103 -4 -111 -25 -120 -13 -5
-23 -13 -23 -17 0 -3 10 -8 23 -10 17 -2 23 -11 27 -38 3 -22 10 -35 20 -35
13 0 15 26 15 174 0 131 -3 175 -12 178 -7 3 -15 -1 -18 -9z"/>
<path d="M3400 696 c0 -102 4 -187 9 -190 25 -16 31 27 29 195 -3 156 -5 174
-20 177 -17 3 -18 -11 -18 -182z"/>
<path d="M3737 874 c-4 -4 -7 -31 -7 -59 0 -84 -49 -100 -74 -24 -14 41 -65
74 -102 65 -14 -4 -37 -18 -50 -31 -21 -21 -24 -33 -24 -100 0 -67 3 -79 25
-100 50 -51 155 -18 155 49 0 32 34 53 56 35 10 -8 14 -35 14 -99 0 -62 4 -91
14 -99 30 -25 37 11 34 190 -3 148 -5 174 -18 177 -9 1 -19 0 -23 -4z m-135
-71 c14 -12 18 -31 18 -79 0 -57 -3 -65 -25 -80 -23 -15 -27 -15 -50 0 -22 15
-25 23 -25 78 0 87 36 123 82 81z"/>
<path d="M4070 696 c0 -102 4 -187 8 -190 22 -13 31 15 34 104 3 90 4 95 26
98 27 4 30 32 2 32 -22 0 -28 18 -32 90 -2 33 -7 46 -20 48 -17 3 -18 -11 -18
-182z"/>
<path d="M4445 868 c-3 -8 -4 -92 -3 -188 3 -148 5 -175 18 -175 13 0 15 27
15 184 0 139 -3 185 -12 188 -7 3 -15 -1 -18 -9z"/>
<path d="M5157 873 c-4 -3 -7 -29 -7 -58 0 -54 -12 -75 -43 -75 -26 0 -16 -23
14 -30 23 -6 24 -10 27 -100 3 -89 12 -117 34 -104 4 3 8 88 8 190 0 147 -3
184 -13 184 -8 0 -17 -3 -20 -7z"/>
<path d="M6199 878 c0 -2 -3 -47 -5 -101 -4 -68 -2 -103 7 -113 18 -22 39 1
39 43 0 26 5 36 20 40 26 7 26 29 1 36 -15 4 -20 15 -23 48 -2 32 -8 45 -20
47 -10 2 -18 2 -19 0z"/>
<path d="M5643 854 c-2 -6 -3 -33 -1 -60 l3 -49 114 0 c81 0 116 4 118 12 3 9
-22 13 -94 15 l-98 3 0 30 0 30 93 3 c50 1 92 7 92 12 0 14 -222 17 -227 4z"/>
<path d="M1365 850 c-12 -20 7 -30 55 -30 27 0 52 -4 55 -10 13 -21 -25 -68
-74 -91 -48 -23 -62 -41 -42 -54 11 -6 52 11 102 43 38 24 64 78 57 123 -3 23
-7 24 -75 27 -42 2 -74 -1 -78 -8z"/>
<path d="M2200 840 c0 -45 -28 -87 -80 -119 -42 -26 -50 -34 -40 -46 10 -13
16 -13 40 0 15 8 41 26 58 40 34 29 45 31 62 10 18 -21 101 -66 111 -59 18 11
8 24 -46 58 -53 34 -61 46 -67 106 -4 32 -38 41 -38 10z"/>
<path d="M3137 842 c-43 -47 -1 -122 67 -122 65 0 103 82 58 123 -26 24 -104
23 -125 -1z m96 -23 c29 -41 -8 -83 -53 -59 -25 13 -26 48 -2 66 24 19 39 17
55 -7z"/>
<path d="M4237 844 c-34 -18 -47 -50 -47 -113 0 -97 31 -135 105 -129 32 2 44
10 63 38 20 30 23 44 20 98 -3 50 -9 67 -28 87 -32 32 -77 39 -113 19z m88
-54 c8 -16 15 -45 15 -64 0 -37 -18 -86 -31 -86 -4 0 -14 -3 -22 -6 -9 -3 -25
4 -36 15 -26 26 -29 115 -5 149 22 32 60 29 79 -8z"/>
<path d="M4682 848 c-7 -7 -12 -24 -12 -39 0 -35 -32 -75 -81 -99 -40 -21 -49
-37 -25 -46 14 -5 78 26 109 54 14 13 22 14 35 5 58 -40 105 -64 118 -59 23 9
16 24 -21 41 -55 27 -84 61 -87 108 -3 43 -16 55 -36 35z"/>
<path d="M2447 844 c-12 -12 -8 -22 13 -29 17 -5 20 -15 20 -60 0 -44 -3 -53
-20 -58 -11 -3 -20 -12 -20 -21 0 -14 18 -16 130 -16 112 0 130 2 130 16 0 9
-9 18 -20 21 -17 5 -20 14 -20 60 0 47 3 56 20 60 12 3 19 11 17 17 -4 12
-238 21 -250 10z m163 -44 c6 -12 10 -38 8 -58 -3 -37 -3 -37 -48 -37 l-45 0
-3 43 c-2 24 2 50 9 58 18 21 66 18 79 -6z"/>
<path d="M2802 753 l3 -98 114 -3 c105 -2 147 5 128 24 -3 4 -46 6 -94 5 -95
-1 -117 6 -111 35 3 17 15 19 101 22 72 2 97 6 94 15 -2 8 -37 14 -98 17 -86
5 -94 7 -94 25 0 18 8 20 98 23 77 2 97 6 97 17 0 12 -21 15 -120 15 l-121 0
3 -97z"/>
<path d="M3843 834 c-2 -5 -2 -59 -1 -118 l3 -108 73 0 c39 1 77 1 82 1 15 1
13 218 -1 227 -19 11 -151 10 -156 -2z m119 -38 c9 -13 10 -118 2 -140 -4 -11
-19 -16 -45 -16 l-39 0 0 84 c0 72 3 85 18 88 23 5 55 -3 64 -16z"/>
<path d="M4902 728 l3 -123 95 0 c78 0 95 3 95 15 0 12 -17 16 -78 18 l-78 3
3 32 c3 31 4 32 56 35 37 2 52 7 52 18 0 10 -12 14 -42 14 -56 0 -70 11 -66
46 3 28 6 29 61 34 87 8 75 25 -21 28 l-83 3 3 -123z"/>
<path d="M5280 830 c0 -19 6 -20 101 -20 l100 0 -2 -82 c-2 -76 0 -83 17 -83
17 0 19 8 19 100 l0 100 -117 3 c-113 3 -118 2 -118 -18z"/>
<path d="M6345 840 c-15 -24 10 -31 95 -29 48 1 93 -2 100 -6 8 -5 11 -31 9
-84 -3 -62 -1 -76 11 -76 18 0 32 76 28 149 l-3 51 -117 3 c-72 2 -119 -1
-123 -8z"/>
<path d="M490 823 c-30 -11 -50 -37 -50 -66 0 -32 26 -61 126 -138 70 -54 105
-109 85 -133 -8 -9 -23 -16 -36 -16 -29 0 -99 51 -121 90 -18 29 -43 37 -51
14 -5 -15 73 -101 108 -119 40 -21 102 -19 122 3 10 10 17 32 17 49 0 39 -67
116 -145 168 -69 45 -91 76 -76 104 22 40 86 35 135 -11 11 -10 22 -16 24 -13
8 8 -49 53 -72 58 -12 2 -28 7 -36 10 -8 3 -22 3 -30 0z"/>
<path d="M5974 755 c-32 -49 5 -95 76 -95 75 0 110 46 74 98 -13 18 -24 22
-74 22 -52 0 -62 -3 -76 -25z m109 -9 c24 -18 21 -33 -8 -52 -23 -15 -27 -15
-50 0 -30 19 -30 24 -8 48 19 21 41 23 66 4z"/>
<path d="M5360 668 c0 -30 -5 -59 -12 -66 -7 -7 -34 -12 -60 -12 -36 0 -48 -4
-48 -15 0 -13 25 -15 165 -15 140 0 165 2 165 15 0 12 -16 15 -85 15 l-84 0
-3 62 c-2 50 -6 63 -20 66 -15 3 -18 -4 -18 -50z"/>
<path d="M6375 708 c-2 -7 -6 -35 -7 -63 -3 -48 -4 -50 -35 -53 -21 -2 -33 -9
-33 -18 0 -12 29 -14 170 -14 142 0 170 2 170 15 0 11 -16 15 -67 17 l-68 3
-5 60 c-4 44 -9 60 -20 60 -11 0 -16 -16 -20 -60 -4 -52 -8 -60 -25 -60 -17 0
-21 8 -25 59 -5 56 -24 86 -35 54z"/>
<path d="M1695 690 c-13 -21 9 -30 76 -30 62 0 69 -2 69 -19 0 -17 -8 -20 -47
-23 -35 -2 -48 -7 -48 -18 0 -12 13 -14 67 -12 37 2 81 1 97 -3 26 -5 30 -11
33 -43 2 -25 8 -37 18 -37 12 0 15 13 15 55 l0 55 -47 3 c-39 3 -48 7 -48 22
0 17 9 19 73 22 56 2 72 6 72 18 0 13 -26 15 -162 18 -102 1 -164 -1 -168 -8z"/>
<path d="M3188 693 c-58 -3 -78 -7 -78 -18 0 -8 13 -15 33 -17 32 -3 32 -4 37
-63 4 -47 9 -61 23 -63 14 -3 17 4 17 46 0 68 7 82 40 82 33 0 49 18 29 31 -8
5 -16 8 -19 7 -3 -1 -40 -4 -82 -5z"/>
<path d="M5590 685 c0 -13 25 -15 165 -15 140 0 165 2 165 15 0 13 -25 15
-165 15 -140 0 -165 -2 -165 -15z"/>
<path d="M2207 663 c-4 -3 -7 -16 -7 -28 0 -34 -19 -44 -90 -47 -37 -2 -64 -7
-63 -13 2 -6 187 -11 523 -13 458 -2 520 0 520 13 0 13 -53 15 -425 15 l-425
0 0 24 c0 44 -16 67 -33 49z"/>
<path d="M1470 643 c-56 -22 -68 -87 -24 -122 38 -30 141 -30 172 -1 29 27 29
80 2 105 -21 19 -119 31 -150 18z m113 -38 c27 -19 18 -57 -15 -69 -42 -15
-102 3 -106 32 -5 31 23 51 68 51 19 0 43 -6 53 -14z"/>
<path d="M410 625 c0 -8 7 -15 15 -15 8 0 15 7 15 15 0 8 -7 15 -15 15 -8 0
-15 -7 -15 -15z"/>
<path d="M5680 622 c-27 -13 -36 -24 -38 -48 -5 -50 34 -74 118 -74 57 0 71 4
94 25 14 13 26 29 26 35 0 65 -120 103 -200 62z m142 -36 c13 -19 9 -35 -13
-47 -25 -13 -105 -7 -122 10 -16 16 3 43 34 52 30 9 92 0 101 -15z"/>
<path d="M6005 610 c-9 -15 10 -19 100 -22 l80 -3 5 -40 c4 -32 9 -40 25 -40
18 0 20 7 20 55 l0 55 -112 3 c-69 2 -114 -1 -118 -8z"/>
<path d="M1097 561 c-10 -19 -15 -36 -13 -38 6 -7 37 48 33 60 -2 6 -11 -4
-20 -22z"/>
<path d="M4527 584 c-18 -19 19 -24 169 -24 139 0 164 2 164 15 0 13 -25 15
-163 15 -90 0 -167 -3 -170 -6z"/>
<path d="M290 553 c0 -5 7 -18 15 -29 12 -16 14 -16 15 -3 0 9 -7 22 -15 29
-8 7 -15 8 -15 3z"/>
<path d="M340 458 c0 -9 11 -23 25 -32 14 -9 25 -13 25 -8 0 5 -11 19 -25 32
-19 18 -25 20 -25 8z"/>
<path d="M1000 421 c-6 -12 -17 -21 -24 -21 -8 0 -20 -8 -27 -17 -12 -15 -12
-16 6 -9 11 5 27 10 37 13 9 3 19 14 22 26 7 29 0 33 -14 8z"/>
<path d="M412 389 c2 -7 10 -15 17 -17 8 -3 12 1 9 9 -2 7 -10 15 -17 17 -8 3
-12 -1 -9 -9z"/>
<path d="M870 330 c-12 -8 -11 -10 8 -10 12 0 22 5 22 10 0 13 -11 13 -30 0z"/>
<path d="M518 323 c6 -2 18 -2 25 0 6 3 1 5 -13 5 -14 0 -19 -2 -12 -5z"/>
<path d="M571 305 c17 -17 69 -30 69 -18 0 5 -18 14 -41 20 -34 9 -39 9 -28
-2z"/>
<path d="M825 310 c-3 -5 -2 -10 4 -10 5 0 13 5 16 10 3 6 2 10 -4 10 -5 0
-13 -4 -16 -10z"/>
<path d="M756 300 c-16 -5 -17 -8 -4 -12 16 -7 45 7 32 14 -5 3 -18 2 -28 -2z"/>
</g>
</svg>
